<svg xmlns="http://www.w3.org/2000/svg" viewBox="0 0 24 24" fill="none" stroke="currentColor" stroke-width="1.6" stroke-linecap="round" stroke-linejoin="round">
  <path d="M14 18 H6 Q5 18 5 17 V10 Q5 9 6 9 H18 Q19 9 19 10 V17 Q19 18 18 18 H16 Z M8 18 V20 M16 18 V20 M7 9 V7 A5 5 0 0 1 17 7 V9 M10 7 A2 2 0 0 1 14 7"/>
</svg>

<svg xmlns="http://www.w3.org/2000/svg" viewBox="0 0 24 24" fill="none" stroke="currentColor" stroke-width="1.6" stroke-linecap="round" stroke-linejoin="round">
  <path d="M5 6 H16 L19 9 V18 H5 Z M10 6 V18 M16 6 V12 M19 9 H10 M14 6 A2 2 0 0 1 18 6"/>
</svg>

<svg xmlns="http://www.w3.org/2000/svg" viewBox="0 0 24 24" fill="none" stroke="currentColor" stroke-width="1.6" stroke-linecap="round" stroke-linejoin="round">
  <path d="M6 18 V6 H18 V18 M10 18 H14 M6 10 H18 M6 14 H18 M10 6 V4 A2 2 0 0 1 14 4 V6"/>
</svg>
